<?xml version="1.0" standalone="no"?>
<!DOCTYPE svg PUBLIC "-//W3C//DTD SVG 20010904//EN"
 "http://www.w3.org/TR/2001/REC-SVG-20010904/DTD/svg10.dtd">
<svg version="1.0" xmlns="http://www.w3.org/2000/svg"
 width="92.000000pt" height="93.000000pt" viewBox="0 0 92.000000 93.000000"
 preserveAspectRatio="xMidYMid meet">

<g transform="translate(0.000000,93.000000) scale(0.100000,-0.100000)"
fill="#000000" stroke="none">
<path d="M233 855 c-17 -7 -48 -35 -67 -62 -41 -55 -47 -77 -12 -44 22 21 29
22 110 15 l87 -7 -40 -38 c-28 -27 -42 -51 -48 -80 -7 -35 -14 -44 -38 -52
-61 -20 -90 -67 -78 -129 6 -34 15 -35 28 -5 7 15 20 23 43 25 l32 3 0 -71 c0
-71 -16 -123 -42 -133 -9 -4 -8 -6 2 -6 25 -1 112 52 133 80 27 38 36 95 37
242 0 138 8 168 65 235 l25 30 -33 -10 c-26 -8 -47 -7 -89 6 -67 19 -74 19
-115 1z"/>
<path d="M491 835 c-61 -69 -65 -85 -71 -280 -4 -109 -11 -189 -18 -202 -15
-27 -81 -81 -144 -116 -43 -25 -118 -100 -118 -119 0 -16 18 -8 49 21 59 55
155 59 252 11 l47 -23 63 52 64 51 13 -28 c19 -35 52 -72 67 -72 15 0 155 110
155 122 0 13 -10 10 -37 -12 -14 -11 -29 -20 -34 -20 -16 0 -52 73 -69 140
-25 99 -61 154 -120 188 l-49 28 58 68 c32 38 73 75 92 83 49 20 88 61 95 100
8 45 1 49 -29 19 -31 -31 -70 -33 -112 -8 l-30 18 -58 -69 c-32 -38 -55 -72
-51 -76 3 -3 13 3 22 15 17 20 19 20 64 4 l46 -16 -56 -65 c-32 -35 -77 -87
-100 -114 l-44 -50 5 121 c5 134 14 161 72 219 39 38 42 45 21 45 -8 0 -28
-16 -45 -35z m15 -376 c43 -26 68 -69 89 -147 22 -88 12 -100 -56 -64 -29 14
-73 27 -105 30 -57 5 -64 11 -37 33 24 20 43 72 43 117 0 59 12 65 66 31z"/>
</g>
</svg>
