<?xml version="1.0" standalone="no"?>
<!DOCTYPE svg PUBLIC "-//W3C//DTD SVG 20010904//EN"
 "http://www.w3.org/TR/2001/REC-SVG-20010904/DTD/svg10.dtd">
<svg version="1.0" xmlns="http://www.w3.org/2000/svg"
 width="583.000000pt" height="91.000000pt" viewBox="0 0 583.000000 91.000000"
 preserveAspectRatio="xMidYMid meet">

<g transform="translate(0.000000,91.000000) scale(0.100000,-0.100000)"
fill="#000000" stroke="none">
<path d="M3690 840 c0 -5 9 -10 19 -10 29 0 63 -32 56 -53 -11 -26 -77 -22
-190 13 -120 37 -189 39 -236 7 -67 -45 -78 -114 -28 -172 l32 -36 -21 -22
c-38 -41 -62 -108 -62 -178 0 -186 174 -323 360 -285 106 22 186 97 210 197
13 53 5 77 -14 44 -6 -10 -30 -40 -53 -65 l-43 -45 0 75 c0 70 2 76 32 107
l32 33 -32 33 c-28 29 -32 40 -32 89 l0 56 45 11 c79 20 109 101 59 160 -32
38 -134 69 -134 41z m-160 -170 c69 -17 135 -32 148 -35 20 -5 22 -11 22 -62
0 -51 -4 -61 -32 -90 l-32 -33 32 -33 c31 -32 32 -36 32 -114 l0 -81 -31 -11
c-53 -18 -130 -13 -179 12 -24 12 -45 27 -47 32 -2 6 33 26 77 44 l80 32 0
144 0 144 -82 -35 c-135 -58 -130 -57 -117 -33 6 11 27 38 46 60 20 22 33 42
30 46 -4 3 -34 -7 -67 -24 -62 -31 -80 -28 -80 11 0 27 28 56 54 56 12 0 78
-14 146 -30z m-50 -249 l0 -119 -31 -11 c-17 -6 -35 -9 -39 -6 -21 13 -41 94
-38 150 3 60 3 60 48 83 24 12 48 22 52 22 4 0 8 -54 8 -119z"/>
<path d="M153 815 c-17 -7 -48 -35 -67 -62 -41 -55 -47 -77 -12 -44 22 21 29
22 110 15 l87 -7 -40 -38 c-28 -27 -42 -51 -48 -80 -7 -35 -14 -44 -38 -52
-61 -20 -90 -67 -78 -129 6 -34 15 -35 28 -5 7 15 20 23 43 25 l32 3 0 -71 c0
-71 -16 -123 -42 -133 -9 -4 -8 -6 2 -6 25 -1 112 52 133 80 27 38 36 95 37
242 0 138 8 168 65 235 l25 30 -33 -10 c-26 -8 -47 -7 -89 6 -67 19 -74 19
-115 1z"/>
<path d="M411 795 c-61 -69 -65 -85 -71 -280 -4 -109 -11 -189 -18 -202 -15
-27 -81 -81 -144 -116 -43 -25 -118 -100 -118 -119 0 -16 18 -8 49 21 59 55
155 59 252 11 l47 -23 63 52 64 51 13 -28 c19 -35 52 -72 67 -72 15 0 155 110
155 122 0 13 -10 10 -37 -12 -14 -11 -29 -20 -34 -20 -16 0 -52 73 -69 140
-25 99 -61 154 -120 188 l-49 28 58 68 c32 38 73 75 92 83 49 20 88 61 95 100
8 45 1 49 -29 19 -31 -31 -70 -33 -112 -8 l-30 18 -58 -69 c-32 -38 -55 -72
-51 -76 3 -3 13 3 22 15 17 20 19 20 64 4 l46 -16 -56 -65 c-32 -35 -77 -87
-100 -114 l-44 -50 5 121 c5 134 14 161 72 219 39 38 42 45 21 45 -8 0 -28
-16 -45 -35z m15 -376 c43 -26 68 -69 89 -147 22 -88 12 -100 -56 -64 -29 14
-73 27 -105 30 -57 5 -64 11 -37 33 24 20 43 72 43 117 0 59 12 65 66 31z"/>
<path d="M2632 769 c-40 -28 -72 -54 -72 -59 0 -5 9 -14 20 -20 19 -10 20 -21
20 -245 l0 -234 -30 -18 c-41 -24 -42 -45 -1 -24 14 8 28 1 68 -34 l50 -44 56
40 c60 43 70 54 37 44 -48 -15 -50 -5 -50 331 0 252 -3 314 -13 314 -7 0 -45
-23 -85 -51z"/>
<path d="M1230 717 c0 -69 2 -74 28 -89 15 -9 40 -30 56 -46 l28 -30 -42 -27
c-23 -14 -48 -29 -56 -32 -11 -4 -14 -35 -14 -158 l0 -152 67 -45 67 -44 103
60 103 61 0 137 c0 128 1 138 21 152 12 8 18 19 14 26 -5 8 -12 7 -24 -4 -17
-15 -29 -6 -177 124 -87 77 -162 140 -166 140 -5 0 -8 -33 -8 -73z m188 -231
l32 -30 0 -143 c0 -79 -3 -143 -6 -143 -3 0 -26 14 -50 32 l-44 31 0 155 c0
172 -5 165 68 98z"/>
<path d="M3981 749 l-44 -39 41 -44 41 -45 42 38 43 38 -21 29 c-11 16 -29 36
-39 46 -18 15 -21 14 -63 -23z"/>
<path d="M943 518 l-103 -60 0 -122 c0 -110 -2 -125 -20 -141 -25 -23 -16 -39
13 -20 20 13 27 10 87 -35 57 -43 67 -47 85 -36 11 7 59 36 108 65 l87 52 0
128 0 128 -67 52 c-37 28 -72 51 -77 50 -6 0 -57 -28 -113 -61z m95 -50 l42
-29 0 -134 c0 -74 -3 -135 -7 -135 -3 0 -28 14 -55 31 l-48 31 0 140 c0 108 3
138 13 132 6 -4 31 -20 55 -36z"/>
<path d="M2183 539 c-35 -23 -63 -46 -63 -50 0 -13 14 -11 29 4 10 10 16 7 32
-12 17 -20 19 -40 19 -152 l0 -128 -29 -17 c-31 -18 -33 -41 -2 -25 13 7 29 0
68 -31 l52 -40 65 47 c36 26 66 53 66 61 0 11 -4 12 -19 4 -11 -5 -23 -15 -26
-20 -4 -6 -16 -4 -31 6 -24 16 -24 19 -24 160 l0 144 33 -20 c65 -40 115 -18
138 59 15 49 8 59 -26 41 -19 -10 -33 -11 -53 -3 -24 9 -31 6 -65 -26 l-38
-36 -32 38 -32 37 -62 -41z"/>
<path d="M2820 468 l-71 -111 93 -137 93 -136 71 45 c44 28 70 51 67 59 -4 10
-10 10 -28 -2 -23 -15 -25 -13 -119 126 -52 77 -93 144 -91 148 3 4 25 0 49
-8 41 -15 47 -15 81 1 34 16 50 39 70 106 l7 24 -27 -21 c-34 -27 -79 -28
-104 -3 -19 19 -20 18 -91 -91z"/>
<path d="M3952 538 c-34 -22 -62 -45 -62 -49 0 -13 14 -11 29 4 10 10 16 7 32
-12 17 -20 19 -40 19 -152 l0 -128 -29 -17 c-32 -19 -33 -41 -2 -24 14 7 23 4
37 -11 11 -12 31 -30 46 -40 l27 -19 68 47 c48 34 62 49 50 51 -10 2 -24 -2
-32 -8 -12 -10 -18 -10 -30 0 -12 10 -15 41 -15 160 l0 148 -36 44 c-20 23
-37 44 -38 45 -1 1 -30 -16 -64 -39z"/>
<path d="M4290 539 c-72 -52 -82 -63 -50 -56 15 4 31 0 42 -10 16 -14 18 -34
18 -146 0 -104 -3 -134 -15 -148 -15 -15 -12 -20 36 -58 l51 -41 27 19 c14 10
35 29 46 41 l20 22 -23 18 c-21 17 -22 25 -22 152 0 134 0 135 25 148 24 13
28 11 60 -20 l35 -34 0 -118 c0 -107 -2 -118 -20 -128 -11 -6 -20 -14 -20 -18
0 -4 20 -25 45 -46 l46 -37 50 42 51 43 -26 21 -27 21 3 129 c3 129 3 129 30
144 26 15 29 14 58 -14 l30 -29 0 -122 c0 -96 -3 -124 -15 -134 -22 -18 -19
-25 29 -65 l44 -36 71 46 c39 25 71 53 71 61 0 13 -3 13 -22 0 -20 -15 -24
-14 -45 6 -22 20 -23 29 -23 142 0 109 2 122 22 143 23 24 18 44 -5 24 -11 -9
-24 -3 -60 29 -25 22 -50 40 -57 40 -6 0 -36 -16 -66 -35 -30 -19 -57 -35 -61
-35 -4 0 -28 18 -53 39 l-46 39 -63 -40 -64 -40 -36 40 -36 40 -55 -39z"/>
<path d="M5143 519 l-113 -60 0 -125 c0 -118 -1 -127 -22 -144 -29 -23 -16
-38 15 -17 22 14 26 13 93 -38 l70 -53 97 80 c100 81 127 130 34 58 -50 -38
-53 -39 -77 -23 -14 9 -40 26 -57 37 -23 15 -33 29 -33 46 0 21 16 35 95 83
52 32 97 62 100 67 5 7 -79 150 -87 150 -2 0 -54 -27 -115 -61z m68 -70 c22
-33 39 -62 37 -63 -10 -9 -88 -56 -93 -56 -8 0 -6 166 2 173 10 11 10 11 54
-54z"/>
<path d="M5530 521 l-95 -57 -3 -65 c-3 -65 -3 -66 33 -90 42 -29 43 -38 9
-70 -53 -50 -70 -122 -38 -167 23 -33 45 -29 38 8 -11 52 47 62 106 19 13 -9
34 -1 103 42 l87 53 0 76 0 75 -41 29 -40 28 25 27 c37 38 73 151 48 151 -4 0
-13 -9 -20 -20 -16 -26 -61 -26 -93 -1 -24 18 -24 18 -119 -38z m82 -57 c20
-10 44 -14 67 -11 l36 6 -59 -55 c-56 -51 -60 -53 -78 -37 -14 12 -18 31 -18
82 1 50 3 62 11 48 5 -9 24 -24 41 -33z m16 -163 c18 -16 22 -29 22 -81 l0
-63 -20 26 c-26 33 -79 49 -123 37 -30 -9 -29 -6 27 45 33 30 62 55 65 55 3
-1 16 -9 29 -19z"/>
<path d="M1762 534 c-35 -20 -68 -47 -74 -60 -16 -34 0 -73 39 -100 l32 -22
-37 -26 c-80 -55 -96 -134 -39 -191 52 -52 79 -54 140 -12 l52 36 36 -35 37
-36 63 42 c78 53 74 49 66 56 -4 4 -14 1 -22 -6 -13 -11 -20 -9 -40 10 -24 22
-25 29 -25 144 0 109 2 122 22 143 25 27 19 40 -10 22 -17 -11 -28 -7 -86 29
-36 23 -71 42 -78 42 -7 0 -41 -16 -76 -36z m49 -60 c59 -37 59 -37 59 -85 l0
-47 -37 10 c-73 20 -133 64 -133 97 0 13 37 61 48 61 2 0 31 -16 63 -36z m12
-140 l47 -16 0 -74 c0 -68 -2 -74 -21 -74 -63 0 -110 93 -83 164 7 19 1 19 57
0z"/>
</g>
</svg>
